<svg width="20" height="20" viewBox="0 0 20 20" fill="none" xmlns="http://www.w3.org/2000/svg">
<path fill-rule="evenodd" clip-rule="evenodd" d="M4 1C3.73478 1 3.48043 1.10536 3.29289 1.29289C3.10536 1.48043 3 1.73478 3 2V18C3 18.2652 3.10536 18.5196 3.29289 18.7071C3.48043 18.8946 3.73478 19 4 19H12C13.173 19.0009 14.3089 18.5893 15.2092 17.8373C16.1094 17.0854 16.7166 16.0408 16.9245 14.8864C17.1325 13.732 16.928 12.5413 16.3467 11.5224C15.7655 10.5036 14.8446 9.72149 13.745 9.313C14.383 8.59181 14.7992 7.70172 14.9436 6.7497C15.088 5.79768 14.9544 4.82422 14.5589 3.94628C14.1634 3.06835 13.5228 2.3233 12.7141 1.80064C11.9053 1.27799 10.9629 0.999974 10 1H4ZM10 9C10.7956 9 11.5587 8.68393 12.1213 8.12132C12.6839 7.55871 13 6.79565 13 6C13 5.20435 12.6839 4.44129 12.1213 3.87868C11.5587 3.31607 10.7956 3 10 3H5V9H10ZM5 11V17H12C12.394 17 12.7841 16.9224 13.148 16.7716C13.512 16.6209 13.8427 16.3999 14.1213 16.1213C14.3999 15.8427 14.6209 15.512 14.7716 15.1481C14.9224 14.7841 15 14.394 15 14C15 13.606 14.9224 13.2159 14.7716 12.8519C14.6209 12.488 14.3999 12.1573 14.1213 11.8787C13.8427 11.6001 13.512 11.3791 13.148 11.2284C12.7841 11.0776 12.394 11 12 11H5Z" fill="#2F82FF"/>
</svg>
