<svg width="20" height="20" viewBox="0 0 20 20" fill="none" xmlns="http://www.w3.org/2000/svg">
<path d="M15.0002 5V13.5C15.0002 14.9002 15.0002 15.6002 14.7277 16.135C14.488 16.6054 14.1056 16.9878 13.6352 17.2275C13.1003 17.5 12.4003 17.5 11.0002 17.5H9.00016C7.60003 17.5 6.89996 17.5 6.36519 17.2275C5.89478 16.9878 5.51233 16.6054 5.27265 16.135C5.00016 15.6002 5.00016 14.9002 5.00016 13.5V5M3.3335 5H16.6668M13.3335 5L13.108 4.32339C12.8894 3.66771 12.7801 3.33987 12.5774 3.09748C12.3984 2.88344 12.1686 2.71777 11.9089 2.61565C11.6148 2.5 11.2693 2.5 10.5782 2.5H9.42216C8.731 2.5 8.3855 2.5 8.09142 2.61565C7.83176 2.71777 7.6019 2.88344 7.4229 3.09748C7.2202 3.33987 7.11093 3.66771 6.89236 4.32339L6.66683 5" stroke="#FF5A82" stroke-width="2" stroke-linecap="round" stroke-linejoin="round"/>
</svg>
