<svg width="20" height="20" viewBox="0 0 20 20" fill="none" xmlns="http://www.w3.org/2000/svg">
<path d="M7.0835 8.3335C7.77385 8.3335 8.3335 7.77385 8.3335 7.0835C8.3335 6.39314 7.77385 5.8335 7.0835 5.8335C6.39314 5.8335 5.8335 6.39314 5.8335 7.0835C5.8335 7.77385 6.39314 8.3335 7.0835 8.3335Z" fill="#2F82FF"/>
<path fill-rule="evenodd" clip-rule="evenodd" d="M9.17109 1.6665H10.8286C11.9836 1.6665 12.9022 1.6665 13.6428 1.728C14.4014 1.791 15.0478 1.9228 15.638 2.22944C16.5513 2.70381 17.2958 3.44842 17.7703 4.36163C18.0769 4.95195 18.2087 5.59826 18.2717 6.35683C18.3332 7.0975 18.3332 8.01605 18.3332 9.171V10.8286C18.3332 11.4043 18.3332 11.9215 18.3256 12.387C18.3373 12.4729 18.3355 12.5603 18.3203 12.6457C18.3116 13.0102 18.2968 13.3413 18.2717 13.6428C18.2087 14.4014 18.0769 15.0478 17.7703 15.638C17.2958 16.5513 16.5513 17.2958 15.638 17.7703C15.0478 18.0769 14.4014 18.2087 13.6428 18.2717C12.9022 18.3332 11.9836 18.3332 10.8287 18.3332H9.17109C8.01613 18.3332 7.0975 18.3332 6.35683 18.2717C5.59826 18.2087 4.95195 18.0769 4.36163 17.7703C3.6988 17.4259 3.1248 16.9393 2.67848 16.3491C2.67003 16.3383 2.66187 16.3275 2.654 16.3164C2.4953 16.103 2.35318 15.8763 2.22944 15.638C1.9228 15.0478 1.791 14.4014 1.728 13.6428C1.6665 12.9022 1.6665 11.9836 1.6665 10.8286V9.17109C1.6665 8.01608 1.6665 7.09751 1.728 6.35683C1.791 5.59826 1.9228 4.95195 2.22944 4.36163C2.70381 3.44842 3.44842 2.70381 4.36163 2.22944C4.95195 1.9228 5.59826 1.791 6.35683 1.728C7.09751 1.6665 8.01608 1.6665 9.17109 1.6665ZM16.6665 9.20817V10.4263L15.5107 9.22067C14.8522 8.53375 13.7532 8.53667 13.0983 9.22709L9.20917 13.3273L7.92931 11.7798C7.24422 10.9514 5.96573 10.9787 5.31657 11.8355L3.49185 14.2438C3.44719 14.0384 3.41322 13.7972 3.38895 13.5049C3.33384 12.8413 3.33317 11.9919 3.33317 10.7915V9.20817C3.33317 8.00775 3.33384 7.15838 3.38895 6.49476C3.44324 5.84113 3.54599 5.44269 3.70846 5.12992C4.02471 4.52111 4.52111 4.02471 5.12992 3.70846C5.44269 3.54599 5.84113 3.44324 6.49476 3.38895C7.15838 3.33384 8.00775 3.33317 9.20817 3.33317H10.7915C11.9919 3.33317 12.8413 3.33384 13.5049 3.38895C14.1586 3.44324 14.557 3.54599 14.8698 3.70846C15.4786 4.02471 15.975 4.52111 16.2913 5.12992C16.4537 5.44269 16.5564 5.84113 16.6108 6.49476C16.6658 7.15838 16.6665 8.00775 16.6665 9.20817ZM5.12992 16.2913C4.86815 16.1553 4.62716 15.9859 4.41234 15.7888L6.645 12.842L7.92488 14.3895C8.56225 15.1602 9.73017 15.1998 10.4184 14.4743L14.3076 10.374L16.6483 12.8158C16.6401 13.0675 16.6281 13.2954 16.6108 13.5049C16.5564 14.1586 16.4537 14.557 16.2913 14.8698C15.975 15.4786 15.4786 15.975 14.8698 16.2913C14.557 16.4537 14.1586 16.5564 13.5049 16.6108C12.8413 16.6658 11.9919 16.6665 10.7915 16.6665H9.20817C8.00775 16.6665 7.15838 16.6658 6.49476 16.6108C5.84113 16.5564 5.44269 16.4537 5.12992 16.2913Z" fill="#2F82FF"/>
</svg>
