<svg width="20" height="20" viewBox="0 0 20 20" fill="none" xmlns="http://www.w3.org/2000/svg">
<path fill-rule="evenodd" clip-rule="evenodd" d="M14.3201 5.57702C14.2192 5.35274 13.9961 5.2085 13.7502 5.2085C13.5043 5.2085 13.2812 5.35274 13.1802 5.57702L9.43017 13.9103C9.28858 14.2252 9.42892 14.5952 9.74367 14.7367C10.0584 14.8784 10.4284 14.7381 10.5701 14.4233L11.7679 11.7615H15.7324L16.9302 14.4233C17.0718 14.7381 17.4418 14.8784 17.7567 14.7367C18.0714 14.5952 18.2117 14.2252 18.0701 13.9103L14.3201 5.57702ZM13.7502 7.35653L12.3304 10.5115H15.1699L13.7502 7.35653Z" fill="#2F82FF"/>
<path opacity="0.5" fill-rule="evenodd" clip-rule="evenodd" d="M1.875 5.8335C1.875 5.48832 2.15482 5.2085 2.5 5.2085H10.8333C11.1785 5.2085 11.4583 5.48832 11.4583 5.8335C11.4583 6.17867 11.1785 6.4585 10.8333 6.4585H2.5C2.15482 6.4585 1.875 6.17867 1.875 5.8335Z" fill="#2F82FF"/>
<path opacity="0.5" d="M1.875 10C1.875 9.65483 2.15482 9.375 2.5 9.375H8.33333C8.6785 9.375 8.95833 9.65483 8.95833 10C8.95833 10.3452 8.6785 10.625 8.33333 10.625H2.5C2.15482 10.625 1.875 10.3452 1.875 10Z" fill="#2F82FF"/>
<path opacity="0.5" d="M1.875 14.1665C1.875 13.8213 2.15482 13.5415 2.5 13.5415H6.66667C7.01184 13.5415 7.29167 13.8213 7.29167 14.1665C7.29167 14.5117 7.01184 14.7915 6.66667 14.7915H2.5C2.15482 14.7915 1.875 14.5117 1.875 14.1665Z" fill="#2F82FF"/>
</svg>
