<svg width="86" height="61" viewBox="0 0 86 61" fill="none" xmlns="http://www.w3.org/2000/svg">
<rect width="86" height="60.2" rx="5" fill="#D9D9D9"/>
<path d="M30.7453 39.8467C32.6901 43.524 36.5735 44.8454 43.4302 44.8454C52.9044 44.8454 56.7021 42.3225 57.5524 34.5473M30.7453 39.8467C29.585 37.6527 29.1147 34.6205 29.1147 30.53C29.1147 19.5829 32.4831 16.2146 43.4302 16.2146C54.3772 16.2146 57.7456 19.5829 57.7456 30.53C57.7456 32.0028 57.6846 33.3385 57.5524 34.5473M30.7453 39.8467L35.9959 34.5959C37.3113 33.2806 39.444 33.2806 40.7594 34.5959L41.0484 34.8849C42.3637 36.2003 44.4966 36.2003 45.8119 34.8849L49.4692 31.2276C50.7846 29.9123 52.9174 29.9123 54.2327 31.2276L57.5524 34.5473M41.2256 25.2182C41.2256 26.9343 39.8328 28.3271 38.1166 28.3271C36.4021 28.3271 35.0093 26.9343 35.0093 25.2182C35.0093 23.502 36.4021 22.1092 38.1166 22.1092C39.8328 22.1092 41.2256 23.502 41.2256 25.2182Z" stroke="#717171" stroke-width="3" stroke-linecap="round" stroke-linejoin="round"/>
</svg>
