<svg width="144" height="10" viewBox="0 0 144 10" fill="none" xmlns="http://www.w3.org/2000/svg">
<path d="M1.09961 8.47894C1.82829 7.34544 2.47084 7.02059 3.81823 6.73186C5.47118 6.37765 6.87268 7.62923 8.19019 8.46189C9.17323 9.08317 10.1882 9.43959 11.3775 9.36526C13.1284 9.25583 14.3309 7.78117 16.133 7.6267C17.0669 7.54666 18.2204 7.44893 19.1329 7.74602C19.7047 7.93218 20.2103 8.44569 20.7095 8.7687C21.5235 9.2954 22.2146 9.39935 23.1725 9.39935C24.2992 9.39935 25.4245 9.28269 26.4791 8.8454C27.052 8.60788 27.5411 8.15424 28.1665 8.05282C28.6432 7.97553 29.1509 8.01873 29.6324 8.01873C30.7105 8.01873 31.5337 8.11132 32.53 8.56416C33.3334 8.92935 33.635 9.46586 34.635 9.34821C36.6295 9.11357 38.2768 7.92039 40.1489 7.3199C41.2363 6.97114 42.7285 6.95041 43.8562 7.12389C45.2244 7.33438 46.1395 8.47951 47.4611 8.78574C49.1772 9.18336 50.8934 8.50543 52.4637 7.85681C53.8313 7.29192 55.1992 6.00646 56.7334 6.0245C58.5733 6.04615 59.9405 6.87023 61.6082 7.43921C64.3531 8.3757 66.221 7.73939 68.5794 6.35688C69.4648 5.83789 70.6439 5.36126 71.6986 5.4109C73.2872 5.48565 74.5149 6.58306 75.7893 7.37956C76.4782 7.81007 77.3002 7.78484 78.0904 7.67784C79.7662 7.4509 80.8277 6.32942 82.2407 5.58134C83.4574 4.93722 84.2345 5.57236 85.3514 6.22904C86.2585 6.7624 87.4996 7.75025 88.641 7.45626C89.7092 7.18111 90.7953 6.42534 91.7431 5.87962C92.5292 5.42706 93.3007 4.8737 94.1124 4.47344C95.045 4.0135 96.4159 4.70169 97.223 5.09557C98.3178 5.62984 99.2917 6.32072 100.274 7.03014C100.642 7.29576 101.019 7.27593 101.459 7.21763C103.476 6.9503 105.371 5.79371 107.186 4.95069C108.523 4.32909 110.032 3.27251 111.549 3.14396C112.997 3.02125 114.453 5.25261 115.614 5.88815C116.738 6.50314 118.494 5.52948 119.492 5.12114C121.261 4.39686 122.968 3.28331 124.81 2.75193C125.421 2.57558 125.866 2.82312 126.412 3.10987C127.838 3.85834 129.171 4.95227 130.69 5.50464C132.735 6.24822 134.647 4.45157 136.417 3.70643C138.201 2.95516 140.085 2.69255 141.94 2.18945C142.664 1.99309 143.632 1.83282 142.843 1.26904" stroke="#434343" stroke-linecap="round"/>
</svg>
