<svg width="150" height="11" viewBox="0 0 150 11" fill="none" xmlns="http://www.w3.org/2000/svg">
<path d="M1 9.55166C1.54494 7.91685 2.30888 6.94107 4.09361 6.67111C5.62537 6.43942 7.28311 6.39728 8.77237 6.87565C11.7831 7.84273 14.3351 9.19208 17.6271 8.77613C19.8191 8.49916 21.5866 7.27448 23.6694 6.71372C24.8276 6.40191 26.1668 6.43225 27.3425 6.61998C30.4528 7.11657 33.2219 8.52071 36.4614 8.25627C40.0058 7.96693 42.9505 6.07092 46.3473 5.31606C49.0779 4.70927 51.2785 6.19653 53.5743 7.43812C55.6806 8.57724 57.5517 8.37043 59.7615 7.52334C61.1144 7.00473 62.4034 6.33811 63.7925 5.91262C65.2699 5.4601 66.4789 5.58689 67.9855 5.86149C70.8022 6.37487 73.5261 6.71935 76.4056 6.43249C79.454 6.1288 81.9918 4.93162 84.8768 4.16555C86.8522 3.64099 89.0298 5.04164 90.9958 5.18823C94.8341 5.47441 98.8165 4.10816 102.535 3.36445C105.048 2.86193 107.766 2.06041 110.29 2.92129C112.553 3.69281 114.445 5.86777 116.955 5.42685C120.333 4.83342 123.334 3.01288 126.687 2.32472C128.416 1.97003 130.176 2.61016 131.852 2.95537C134.451 3.49078 137.154 4.21925 139.761 3.31331C141.912 2.56583 143.637 1.01272 145.999 0.910015C146.842 0.873373 147.733 1.02123 148.573 1.11455" stroke="#2F82FF" stroke-linecap="round"/>
</svg>
