<svg width="86" height="7" viewBox="0 0 86 7" fill="none" xmlns="http://www.w3.org/2000/svg">
<path d="M1.20166 3.86024C1.70374 3.49763 1.89651 2.87844 2.31791 2.43225C2.92046 1.79426 3.8655 1.21543 4.74148 1.07464C8.20299 0.51833 10.12 3.19984 12.7061 4.86587C14.5634 6.06242 15.6314 4.7644 16.9498 3.52838C18.0504 2.49665 19.3599 2.21227 20.8115 2.23112C22.2713 2.25008 22.8383 3.08164 23.9088 3.93064C24.8948 4.71266 26.597 4.99637 27.8107 5.08711C29.1833 5.18974 30.2748 4.69885 31.5315 4.1921C32.9395 3.62434 35.0196 2.51335 36.62 2.80433C38.0763 3.06911 39.2183 4.21321 40.6023 4.57424C43.3267 5.28496 46.1898 4.92438 48.7881 3.98092C50.3827 3.40193 52.2115 1.67519 53.9772 1.8892C55.6862 2.09636 57.0193 3.40021 58.5025 4.14182C60.9005 5.34081 63.5565 3.66407 65.8235 2.82444C66.7871 2.46756 67.8553 4.12761 68.3577 4.72508C69.2793 5.82098 70.9196 5.62371 72.2193 5.66032C74.732 5.7311 77.1159 4.48215 79.3593 3.45799C80.7398 2.82778 82.1421 2.30504 83.5427 1.7283C83.8153 1.61608 83.9882 1.56155 84.1059 1.32605" stroke="#434343" stroke-width="2" stroke-linecap="round"/>
</svg>
