<svg width="20" height="20" viewBox="0 0 20 20" fill="none" xmlns="http://www.w3.org/2000/svg">
<g clip-path="url(#clip0_468_994)">
<path d="M19.1145 0.0617676H0.946846C0.458657 0.0617676 0.0615234 0.458868 0.0615234 0.946957V19.1147C0.0615234 19.6028 0.458668 20 0.946846 20H19.1145C19.6026 20 19.9997 19.6028 19.9997 19.1147V0.946957C19.9997 0.458868 19.6026 0.0617676 19.1145 0.0617676ZM0.946846 0.761901H19.1145C19.2165 0.761901 19.2995 0.844934 19.2995 0.946957V3.11953H0.761657V0.946957C0.761657 0.844934 0.844734 0.761901 0.946846 0.761901ZM19.1145 19.2998H0.946846C0.844734 19.2998 0.761657 19.2168 0.761657 19.1147V3.81967H19.2995V19.1147C19.2995 19.2168 19.2165 19.2998 19.1145 19.2998Z" fill="#2F82FF"/>
<path d="M16.8736 12.7881H3.70995C3.18602 12.7881 2.75977 13.2143 2.75977 13.7383V17.239C2.75977 17.7629 3.18602 18.1891 3.70995 18.1891H16.8736C17.3976 18.1891 17.8238 17.7629 17.8238 17.239V13.7383C17.8238 13.2143 17.3976 12.7881 16.8736 12.7881ZM17.1237 17.2389C17.1237 17.3768 17.0115 17.489 16.8736 17.489H3.70995C3.57208 17.489 3.45991 17.3768 3.45991 17.2389V13.7383C3.45991 13.6004 3.57209 13.4882 3.70995 13.4882H16.8736C17.0115 13.4882 17.1237 13.6004 17.1237 13.7383L17.1237 17.2389Z" fill="#2F82FF"/>
<path d="M3.70995 10.1542H7.10512C7.62904 10.1542 8.05531 9.72792 8.05531 9.20399V5.80882C8.05531 5.28489 7.62905 4.85864 7.10512 4.85864H3.70995C3.18602 4.85864 2.75977 5.28489 2.75977 5.80882V9.20399C2.75978 9.72792 3.18602 10.1542 3.70995 10.1542ZM3.45991 5.80882C3.45991 5.67095 3.57209 5.55878 3.70995 5.55878H7.10512C7.24299 5.55878 7.35518 5.67095 7.35518 5.80882V9.20399C7.35518 9.34185 7.24299 9.45404 7.10512 9.45404H3.70995C3.57208 9.45404 3.45991 9.34185 3.45991 9.20399V5.80882Z" fill="#2F82FF"/>
<path d="M17.4737 11.071H3.10983C2.91649 11.071 2.75977 11.2278 2.75977 11.4211C2.75977 11.6145 2.91649 11.7712 3.10983 11.7712H17.4737C17.6671 11.7712 17.8238 11.6145 17.8238 11.4211C17.8238 11.2278 17.6671 11.071 17.4737 11.071Z" fill="#2F82FF"/>
<path d="M17.4743 9.24561H9.53953C9.34617 9.24561 9.18945 9.40233 9.18945 9.59568C9.18945 9.78903 9.34617 9.94574 9.53953 9.94574H17.4743C17.6677 9.94574 17.8244 9.78903 17.8244 9.59568C17.8244 9.40234 17.6677 9.24561 17.4743 9.24561Z" fill="#2F82FF"/>
<path d="M17.4743 7.14526H9.53953C9.34617 7.14526 9.18945 7.30199 9.18945 7.49533C9.18945 7.68867 9.34617 7.84539 9.53953 7.84539H17.4743C17.6677 7.84539 17.8244 7.68867 17.8244 7.49533C17.8244 7.30199 17.6677 7.14526 17.4743 7.14526Z" fill="#2F82FF"/>
<path d="M17.4743 5.04492H9.53953C9.34617 5.04492 9.18945 5.20164 9.18945 5.395C9.18945 5.58834 9.34617 5.74506 9.53953 5.74506H17.4743C17.6677 5.74506 17.8244 5.58834 17.8244 5.395C17.8244 5.20166 17.6677 5.04492 17.4743 5.04492Z" fill="#2F82FF"/>
<path d="M2.27648 2.46946C2.5872 2.46946 2.83909 2.21757 2.83909 1.90685C2.83909 1.59613 2.5872 1.34424 2.27648 1.34424C1.96576 1.34424 1.71387 1.59613 1.71387 1.90685C1.71387 2.21757 1.96576 2.46946 2.27648 2.46946Z" fill="#2F82FF"/>
<path d="M4.05187 2.46946C4.36259 2.46946 4.61448 2.21757 4.61448 1.90685C4.61448 1.59613 4.36259 1.34424 4.05187 1.34424C3.74115 1.34424 3.48926 1.59613 3.48926 1.90685C3.48926 2.21757 3.74115 2.46946 4.05187 2.46946Z" fill="#2F82FF"/>
<path d="M5.82726 2.46946C6.13798 2.46946 6.38987 2.21757 6.38987 1.90685C6.38987 1.59613 6.13798 1.34424 5.82726 1.34424C5.51654 1.34424 5.26465 1.59613 5.26465 1.90685C5.26465 2.21757 5.51654 2.46946 5.82726 2.46946Z" fill="#2F82FF"/>
</g>
<defs>
<clipPath id="clip0_468_994">
<rect width="20" height="20" fill="white"/>
</clipPath>
</defs>
</svg>
