<svg width="22" height="22" viewBox="0 0 22 22" fill="none" xmlns="http://www.w3.org/2000/svg">
<path d="M14.8889 7.11111H14.9M9.33333 6H9.34445M6 10.4444H6.01111M11 21C5.47716 21 1 16.5229 1 11C1 5.47716 5.47716 1 11 1C16.5229 1 21 5.47716 21 11C21 12.841 19.5077 14.3333 17.6667 14.3333H17C16.5871 14.3333 16.3807 14.3333 16.2079 14.3607C15.257 14.5113 14.5113 15.257 14.3607 16.2079C14.3333 16.3807 14.3333 16.5871 14.3333 17V17.6667C14.3333 19.5077 12.841 21 11 21ZM15.4444 7.11111C15.4444 7.41793 15.1957 7.66667 14.8889 7.66667C14.5821 7.66667 14.3333 7.41793 14.3333 7.11111C14.3333 6.80429 14.5821 6.55556 14.8889 6.55556C15.1957 6.55556 15.4444 6.80429 15.4444 7.11111ZM9.88889 6C9.88889 6.30682 9.64011 6.55556 9.33333 6.55556C9.02656 6.55556 8.77778 6.30682 8.77778 6C8.77778 5.69318 9.02656 5.44444 9.33333 5.44444C9.64011 5.44444 9.88889 5.69318 9.88889 6ZM6.55556 10.4444C6.55556 10.7512 6.30682 11 6 11C5.69318 11 5.44444 10.7512 5.44444 10.4444C5.44444 10.1377 5.69318 9.88889 6 9.88889C6.30682 9.88889 6.55556 10.1377 6.55556 10.4444Z" stroke="#2F82FF" stroke-linecap="round" stroke-linejoin="round"/>
</svg>
