<svg width="20" height="20" viewBox="0 0 20 20" fill="none" xmlns="http://www.w3.org/2000/svg">
<path d="M13.7968 10.755L13.4172 11.1323C13.4172 11.1323 12.515 12.0294 10.0525 9.58083C7.59002 7.13234 8.49217 6.23531 8.49217 6.23531L8.73117 5.99765C9.32 5.4122 9.3755 4.47226 8.86175 3.78607L7.81097 2.3824C7.17515 1.5331 5.94655 1.42091 5.21779 2.14553L3.90979 3.4461C3.54844 3.8054 3.30629 4.27116 3.33566 4.78784C3.41078 6.10968 4.00884 8.95375 7.34605 12.272C10.885 15.7908 14.2056 15.9307 15.5635 15.8041C15.993 15.7641 16.3665 15.5453 16.6675 15.246L17.8513 14.069C18.6504 13.2744 18.4251 11.9122 17.4027 11.3565L15.8106 10.491C15.1392 10.1261 14.3214 10.2333 13.7968 10.755Z" fill="#2F82FF"/>
</svg>
